<svg width="24" height="24" viewBox="0 0 24 24" fill="none" xmlns="http://www.w3.org/2000/svg">
<path d="M6.51367 17.2356C7.57573 18.0146 8.89669 18.3553 10.2031 18.1873C10.5556 18.141 10.9247 18.0764 11.3253 17.9986C16.5854 16.9757 20.8723 12.7269 20.9037 8.50785C20.921 7.60801 20.7156 6.71786 20.3058 5.91655C19.8961 5.11523 19.2946 4.42758 18.5551 3.91475C18.3151 3.74923 17.7275 3.79061 17.792 3.87006C18.6998 4.89079 19.1881 6.21693 19.1592 7.58261C19.1294 11.8016 14.8408 16.0521 9.58071 17.0734C8.57597 17.3009 7.53946 17.3529 6.51698 17.2273L6.51367 17.2356Z" fill="white"/>
<path d="M20.8715 5.07533L19.1286 4.14844C21.0553 5.16968 22.2569 6.96223 22.2404 9.21326C22.2089 13.4323 17.922 17.6811 12.6619 18.704C11.5268 18.9323 10.3633 18.9837 9.2125 18.8563L7.96119 20.9385C7.80468 21.1234 7.58985 21.2495 7.35209 21.296C7.17045 21.3369 6.98035 21.3153 6.8125 21.2348L8.65305 22.2113C8.84721 22.2856 9.05854 22.3028 9.26215 22.261C9.37062 22.2429 9.47425 22.2029 9.56674 22.1434C9.65923 22.0839 9.73862 22.0062 9.80009 21.9151L11.0663 19.7931C12.1817 19.9044 13.3075 19.8486 14.4064 19.6276C19.6649 18.6047 23.9535 14.3559 23.9849 10.1369C23.9998 7.88747 22.7982 6.09823 20.8715 5.07533Z" fill="white"/>
<path d="M4.9334 20.0582L4.94664 17.9445C4.94797 17.7452 4.90056 17.5485 4.80854 17.3717C4.71651 17.1948 4.58266 17.0432 4.41864 16.9299C2.92898 15.8921 0.767327 13.5252 2.60788 9.17871C1.61478 9.45181 1.02388 9.63719 0.290637 9.88547C-0.0403971 11.4777 -0.119845 14.4355 3.20043 16.3406L3.18057 19.1329C3.17803 19.2137 3.19886 19.2936 3.24054 19.3628C3.28223 19.4321 3.34301 19.4879 3.4156 19.5235C3.4156 19.5235 4.87712 20.2965 4.94498 20.3346C4.98305 20.3528 5.00788 20.3213 4.97809 20.2766C4.94524 20.2087 4.92988 20.1336 4.9334 20.0582Z" fill="white"/>
<path d="M8.23251 21.713L8.25237 18.8281L6.83058 18.0733C6.22171 17.552 5.73595 16.9022 5.40826 16.1707C5.08056 15.4391 4.91907 14.6441 4.93541 13.8427C4.93986 13.3471 4.99982 12.8535 5.11416 12.3712C5.09004 12.3005 5.05484 12.234 5.00989 12.1743C4.48189 11.1812 4.09458 10.2344 3.94727 9.87854C1.84685 14.7679 4.88741 17.1712 6.28934 17.979L6.45485 18.0617L6.43499 20.758C6.43324 20.8416 6.45535 20.924 6.49873 20.9956C6.54211 21.0671 6.60498 21.1248 6.67996 21.1618L8.48078 22.1169C8.40493 22.0806 8.34116 22.0232 8.29712 21.9515C8.25308 21.8799 8.23064 21.7971 8.23251 21.713V21.713Z" fill="white"/>
<path d="M16.0548 2.5179C14.3765 1.62742 12.1503 1.32121 9.70063 1.79624C7.41377 2.24588 5.28393 3.28484 3.52187 4.81031C2.67773 5.54385 1.94555 6.39703 1.34863 7.34273C2.49732 7.08287 3.24049 6.94549 4.21043 6.78328C6.25456 4.63155 8.46091 3.40507 11.4684 2.71652C13.2675 2.37059 14.9442 2.44838 16.3726 2.8688C16.515 2.92011 16.5679 2.79266 16.414 2.70328L16.0548 2.5179Z" fill="white"/>
<path d="M12.7748 3.4299H12.7666C9.76574 4.10686 7.61402 5.3201 5.55664 7.48507C5.72973 8.28225 5.94353 9.07003 6.19719 9.84534C7.73154 7.40065 10.5222 5.35983 13.758 4.52562L14.5426 4.35017C16.9823 3.88176 19.2002 4.18465 20.872 5.07514L19.1291 4.14824C17.4507 3.26107 15.2278 2.95321 12.7748 3.4299Z" fill="white"/>
</svg>
