<svg width="119" height="20" viewBox="0 0 119 20" fill="none" xmlns="http://www.w3.org/2000/svg">
<path d="M3.44727 10.2119H1.54785V9.44531H3.44727C3.8151 9.44531 4.11296 9.38672 4.34082 9.26953C4.56868 9.15234 4.7347 8.98958 4.83887 8.78125C4.94629 8.57292 5 8.33529 5 8.06836C5 7.82422 4.94629 7.59473 4.83887 7.37988C4.7347 7.16504 4.56868 6.99251 4.34082 6.8623C4.11296 6.72884 3.8151 6.66211 3.44727 6.66211H1.76758V13H0.825195V5.89062H3.44727C3.98438 5.89062 4.43848 5.9834 4.80957 6.16895C5.18066 6.35449 5.46224 6.61165 5.6543 6.94043C5.84635 7.26595 5.94238 7.63867 5.94238 8.05859C5.94238 8.51432 5.84635 8.90332 5.6543 9.22559C5.46224 9.54785 5.18066 9.79362 4.80957 9.96289C4.43848 10.1289 3.98438 10.2119 3.44727 10.2119ZM6.68945 10.417V10.3047C6.68945 9.92383 6.74479 9.57064 6.85547 9.24512C6.96615 8.91634 7.12565 8.63151 7.33398 8.39062C7.54232 8.14648 7.7946 7.95768 8.09082 7.82422C8.38704 7.6875 8.71908 7.61914 9.08691 7.61914C9.45801 7.61914 9.79167 7.6875 10.0879 7.82422C10.3874 7.95768 10.6413 8.14648 10.8496 8.39062C11.0612 8.63151 11.2223 8.91634 11.333 9.24512C11.4437 9.57064 11.499 9.92383 11.499 10.3047V10.417C11.499 10.7979 11.4437 11.151 11.333 11.4766C11.2223 11.8021 11.0612 12.0869 10.8496 12.3311C10.6413 12.5719 10.389 12.7607 10.0928 12.8975C9.7998 13.0309 9.46777 13.0977 9.09668 13.0977C8.72559 13.0977 8.39193 13.0309 8.0957 12.8975C7.79948 12.7607 7.54557 12.5719 7.33398 12.3311C7.12565 12.0869 6.96615 11.8021 6.85547 11.4766C6.74479 11.151 6.68945 10.7979 6.68945 10.417ZM7.59277 10.3047V10.417C7.59277 10.6807 7.6237 10.9297 7.68555 11.1641C7.7474 11.3952 7.84017 11.6003 7.96387 11.7793C8.09082 11.9583 8.2487 12.0999 8.4375 12.2041C8.6263 12.305 8.84603 12.3555 9.09668 12.3555C9.34408 12.3555 9.56055 12.305 9.74609 12.2041C9.9349 12.0999 10.0911 11.9583 10.2148 11.7793C10.3385 11.6003 10.4313 11.3952 10.4932 11.1641C10.5583 10.9297 10.5908 10.6807 10.5908 10.417V10.3047C10.5908 10.0443 10.5583 9.7985 10.4932 9.56738C10.4313 9.33301 10.3369 9.1263 10.21 8.94727C10.0863 8.76497 9.93001 8.62174 9.74121 8.51758C9.55566 8.41341 9.33757 8.36133 9.08691 8.36133C8.83952 8.36133 8.62142 8.41341 8.43262 8.51758C8.24707 8.62174 8.09082 8.76497 7.96387 8.94727C7.84017 9.1263 7.7474 9.33301 7.68555 9.56738C7.6237 9.7985 7.59277 10.0443 7.59277 10.3047ZM13.9697 12.0625L15.3271 7.7168H15.9229L15.8057 8.58105L14.4238 13H13.8428L13.9697 12.0625ZM13.0566 7.7168L14.2139 12.1113L14.2969 13H13.6865L12.1533 7.7168H13.0566ZM17.2217 12.0771L18.3252 7.7168H19.2236L17.6904 13H17.085L17.2217 12.0771ZM16.0547 7.7168L17.3828 11.9893L17.5342 13H16.958L15.5371 8.57129L15.4199 7.7168H16.0547ZM22.3438 13.0977C21.9759 13.0977 21.6423 13.0358 21.3428 12.9121C21.0465 12.7852 20.791 12.6077 20.5762 12.3799C20.3646 12.152 20.2018 11.8818 20.0879 11.5693C19.974 11.2568 19.917 10.915 19.917 10.5439V10.3389C19.917 9.90918 19.9805 9.52669 20.1074 9.19141C20.2344 8.85286 20.4069 8.56641 20.625 8.33203C20.8431 8.09766 21.0905 7.92025 21.3672 7.7998C21.6439 7.67936 21.9303 7.61914 22.2266 7.61914C22.6042 7.61914 22.9297 7.68424 23.2031 7.81445C23.4798 7.94466 23.7061 8.12695 23.8818 8.36133C24.0576 8.59245 24.1878 8.86589 24.2725 9.18164C24.3571 9.49414 24.3994 9.83594 24.3994 10.207V10.6123H20.4541V9.875H23.4961V9.80664C23.4831 9.57227 23.4342 9.3444 23.3496 9.12305C23.2682 8.90169 23.138 8.7194 22.959 8.57617C22.7799 8.43294 22.5358 8.36133 22.2266 8.36133C22.0215 8.36133 21.8327 8.40527 21.6602 8.49316C21.4876 8.5778 21.3395 8.70475 21.2158 8.87402C21.0921 9.04329 20.9961 9.25 20.9277 9.49414C20.8594 9.73828 20.8252 10.0199 20.8252 10.3389V10.5439C20.8252 10.7946 20.8594 11.0306 20.9277 11.252C20.9993 11.4701 21.1019 11.6621 21.2354 11.8281C21.3721 11.9941 21.5365 12.1243 21.7285 12.2188C21.9238 12.3132 22.1452 12.3604 22.3926 12.3604C22.7116 12.3604 22.9818 12.2952 23.2031 12.165C23.4245 12.0348 23.6182 11.8607 23.7842 11.6426L24.3311 12.0771C24.2171 12.2497 24.0723 12.4141 23.8965 12.5703C23.7207 12.7266 23.5042 12.8535 23.2471 12.9512C22.9932 13.0488 22.6921 13.0977 22.3438 13.0977ZM26.3574 8.54688V13H25.4541V7.7168H26.333L26.3574 8.54688ZM28.0078 7.6875L28.0029 8.52734C27.9281 8.51107 27.8564 8.5013 27.7881 8.49805C27.723 8.49154 27.6481 8.48828 27.5635 8.48828C27.3551 8.48828 27.1712 8.52083 27.0117 8.58594C26.8522 8.65104 26.7171 8.74219 26.6064 8.85938C26.4958 8.97656 26.4079 9.11654 26.3428 9.2793C26.2809 9.4388 26.2402 9.61458 26.2207 9.80664L25.9668 9.95312C25.9668 9.63411 25.9977 9.33464 26.0596 9.05469C26.1247 8.77474 26.224 8.52734 26.3574 8.3125C26.4909 8.0944 26.6602 7.92513 26.8652 7.80469C27.0736 7.68099 27.321 7.61914 27.6074 7.61914C27.6725 7.61914 27.7474 7.62728 27.832 7.64355C27.9167 7.65658 27.9753 7.67122 28.0078 7.6875ZM30.9375 13.0977C30.5697 13.0977 30.236 13.0358 29.9365 12.9121C29.6403 12.7852 29.3848 12.6077 29.1699 12.3799C28.9583 12.152 28.7956 11.8818 28.6816 11.5693C28.5677 11.2568 28.5107 10.915 28.5107 10.5439V10.3389C28.5107 9.90918 28.5742 9.52669 28.7012 9.19141C28.8281 8.85286 29.0007 8.56641 29.2188 8.33203C29.4368 8.09766 29.6842 7.92025 29.9609 7.7998C30.2376 7.67936 30.5241 7.61914 30.8203 7.61914C31.1979 7.61914 31.5234 7.68424 31.7969 7.81445C32.0736 7.94466 32.2998 8.12695 32.4756 8.36133C32.6514 8.59245 32.7816 8.86589 32.8662 9.18164C32.9508 9.49414 32.9932 9.83594 32.9932 10.207V10.6123H29.0479V9.875H32.0898V9.80664C32.0768 9.57227 32.028 9.3444 31.9434 9.12305C31.862 8.90169 31.7318 8.7194 31.5527 8.57617C31.3737 8.43294 31.1296 8.36133 30.8203 8.36133C30.6152 8.36133 30.4264 8.40527 30.2539 8.49316C30.0814 8.5778 29.9333 8.70475 29.8096 8.87402C29.6859 9.04329 29.5898 9.25 29.5215 9.49414C29.4531 9.73828 29.4189 10.0199 29.4189 10.3389V10.5439C29.4189 10.7946 29.4531 11.0306 29.5215 11.252C29.5931 11.4701 29.6956 11.6621 29.8291 11.8281C29.9658 11.9941 30.1302 12.1243 30.3223 12.2188C30.5176 12.3132 30.7389 12.3604 30.9863 12.3604C31.3053 12.3604 31.5755 12.2952 31.7969 12.165C32.0182 12.0348 32.2119 11.8607 32.3779 11.6426L32.9248 12.0771C32.8109 12.2497 32.666 12.4141 32.4902 12.5703C32.3145 12.7266 32.098 12.8535 31.8408 12.9512C31.5869 13.0488 31.2858 13.0977 30.9375 13.0977ZM37.3779 11.9746V5.5H38.2861V13H37.4561L37.3779 11.9746ZM33.8232 10.417V10.3145C33.8232 9.91081 33.8721 9.5446 33.9697 9.21582C34.0706 8.88379 34.2122 8.59896 34.3945 8.36133C34.5801 8.1237 34.7998 7.94141 35.0537 7.81445C35.3109 7.68424 35.5973 7.61914 35.9131 7.61914C36.2451 7.61914 36.5348 7.67773 36.7822 7.79492C37.0329 7.90885 37.2445 8.0765 37.417 8.29785C37.5928 8.51595 37.7311 8.77962 37.832 9.08887C37.9329 9.39811 38.0029 9.74805 38.042 10.1387V10.5879C38.0062 10.9753 37.9362 11.3236 37.832 11.6328C37.7311 11.9421 37.5928 12.2057 37.417 12.4238C37.2445 12.6419 37.0329 12.8096 36.7822 12.9268C36.5316 13.0407 36.2386 13.0977 35.9033 13.0977C35.5941 13.0977 35.3109 13.0309 35.0537 12.8975C34.7998 12.764 34.5801 12.5768 34.3945 12.3359C34.2122 12.0951 34.0706 11.8118 33.9697 11.4863C33.8721 11.1576 33.8232 10.8011 33.8232 10.417ZM34.7314 10.3145V10.417C34.7314 10.6807 34.7575 10.9281 34.8096 11.1592C34.8649 11.3903 34.9495 11.5938 35.0635 11.7695C35.1774 11.9453 35.3223 12.0837 35.498 12.1846C35.6738 12.2822 35.8838 12.3311 36.1279 12.3311C36.4274 12.3311 36.6732 12.2676 36.8652 12.1406C37.0605 12.0137 37.2168 11.846 37.334 11.6377C37.4512 11.4294 37.5423 11.2031 37.6074 10.959V9.78223C37.5684 9.60319 37.5114 9.43066 37.4365 9.26465C37.3649 9.09538 37.2705 8.94564 37.1533 8.81543C37.0394 8.68197 36.8978 8.57617 36.7285 8.49805C36.5625 8.41992 36.3656 8.38086 36.1377 8.38086C35.8903 8.38086 35.6771 8.43294 35.498 8.53711C35.3223 8.63802 35.1774 8.77799 35.0635 8.95703C34.9495 9.13281 34.8649 9.33789 34.8096 9.57227C34.7575 9.80339 34.7314 10.0508 34.7314 10.3145ZM42.168 5.5H43.0762V11.9746L42.998 13H42.168V5.5ZM46.6455 10.3145V10.417C46.6455 10.8011 46.5999 11.1576 46.5088 11.4863C46.4176 11.8118 46.2842 12.0951 46.1084 12.3359C45.9326 12.5768 45.7178 12.764 45.4639 12.8975C45.21 13.0309 44.9186 13.0977 44.5898 13.0977C44.2546 13.0977 43.96 13.0407 43.7061 12.9268C43.4554 12.8096 43.2438 12.6419 43.0713 12.4238C42.8988 12.2057 42.7604 11.9421 42.6562 11.6328C42.5553 11.3236 42.4854 10.9753 42.4463 10.5879V10.1387C42.4854 9.74805 42.5553 9.39811 42.6562 9.08887C42.7604 8.77962 42.8988 8.51595 43.0713 8.29785C43.2438 8.0765 43.4554 7.90885 43.7061 7.79492C43.9567 7.67773 44.248 7.61914 44.5801 7.61914C44.9121 7.61914 45.2067 7.68424 45.4639 7.81445C45.721 7.94141 45.9359 8.1237 46.1084 8.36133C46.2842 8.59896 46.4176 8.88379 46.5088 9.21582C46.5999 9.5446 46.6455 9.91081 46.6455 10.3145ZM45.7373 10.417V10.3145C45.7373 10.0508 45.7129 9.80339 45.6641 9.57227C45.6152 9.33789 45.5371 9.13281 45.4297 8.95703C45.3223 8.77799 45.1807 8.63802 45.0049 8.53711C44.8291 8.43294 44.6126 8.38086 44.3555 8.38086C44.1276 8.38086 43.929 8.41992 43.7598 8.49805C43.5938 8.57617 43.4521 8.68197 43.335 8.81543C43.2178 8.94564 43.1217 9.09538 43.0469 9.26465C42.9753 9.43066 42.9215 9.60319 42.8857 9.78223V10.959C42.9378 11.1868 43.0225 11.4066 43.1396 11.6182C43.2601 11.8265 43.4196 11.9974 43.6182 12.1309C43.82 12.2643 44.069 12.3311 44.3652 12.3311C44.6094 12.3311 44.8177 12.2822 44.9902 12.1846C45.166 12.0837 45.3076 11.9453 45.415 11.7695C45.5257 11.5938 45.6071 11.3903 45.6592 11.1592C45.7113 10.9281 45.7373 10.6807 45.7373 10.417ZM49.2139 12.4531L50.6836 7.7168H51.6504L49.5312 13.8154C49.4824 13.9456 49.4173 14.0856 49.3359 14.2354C49.2578 14.3883 49.1569 14.5332 49.0332 14.6699C48.9095 14.8066 48.7598 14.9173 48.584 15.002C48.4115 15.0898 48.2048 15.1338 47.9639 15.1338C47.8923 15.1338 47.8011 15.124 47.6904 15.1045C47.5798 15.085 47.5016 15.0687 47.4561 15.0557L47.4512 14.3232C47.4772 14.3265 47.5179 14.3298 47.5732 14.333C47.6318 14.3395 47.6725 14.3428 47.6953 14.3428C47.9004 14.3428 48.0745 14.3151 48.2178 14.2598C48.361 14.2077 48.4814 14.1182 48.5791 13.9912C48.68 13.8675 48.7663 13.6966 48.8379 13.4785L49.2139 12.4531ZM48.1348 7.7168L49.5068 11.8184L49.7412 12.7705L49.0918 13.1025L47.1484 7.7168H48.1348Z" fill="#090B29"/>
<path d="M81 14.1493V6.43494H82.4307V14.1493H81Z" fill="#404041"/>
<path d="M85.1156 11.1336L86.413 10.9413C86.7138 10.8991 86.8093 10.7502 86.8093 10.5685C86.8093 10.1957 86.5203 9.88732 85.92 9.88732C85.2984 9.88732 84.9552 10.2812 84.9127 10.7397L83.6472 10.4735C83.7333 9.65284 84.494 8.74658 85.9094 8.74658C87.5819 8.74658 88.2034 9.6845 88.2034 10.7397V13.3189C88.205 13.5971 88.2263 13.8749 88.2671 14.1501H86.9603C86.923 13.9428 86.9048 13.7324 86.906 13.5217C86.6383 13.9368 86.1347 14.299 85.3527 14.299C84.2263 14.299 83.541 13.5428 83.541 12.7222C83.541 11.7831 84.2369 11.2661 85.1156 11.1336ZM86.8093 12.0281V11.7936L85.6157 11.9754C85.2512 12.0281 84.9611 12.2309 84.9611 12.6366C84.9611 12.9449 85.1864 13.2439 85.6475 13.2439C86.2526 13.2439 86.8093 12.9555 86.8093 12.0281Z" fill="#404041"/>
<path d="M94.3775 13.2008C94.3775 13.5525 94.3987 13.9359 94.42 14.1493H93.0588C93.0237 13.9487 93.0055 13.7456 93.0046 13.542C92.7687 13.957 92.2332 14.2771 91.5255 14.2771C90.0253 14.2771 88.9531 13.1047 88.9531 11.5173C88.9531 9.98378 89.9934 8.77855 91.4831 8.77855C92.3948 8.77855 92.823 9.15255 92.9727 9.42923V6.43494H94.3775V13.2008ZM91.6977 13.0097C92.4267 13.0097 92.9952 12.4552 92.9952 11.5067C92.9952 10.5582 92.4267 10.0471 91.6977 10.0471C90.9688 10.0471 90.3897 10.5794 90.3897 11.5173C90.3897 12.4552 90.9476 13.0097 91.6977 13.0097V13.0097Z" fill="#404041"/>
<path d="M96.3602 6.30689C96.5339 6.30666 96.7037 6.35753 96.8484 6.45309C96.993 6.54864 97.106 6.68461 97.173 6.84385C97.2401 7.0031 97.2582 7.17851 97.2251 7.34798C97.1921 7.51745 97.1093 7.67341 96.9872 7.79621C96.8652 7.91901 96.7093 8.00315 96.5392 8.03805C96.3691 8.07294 96.1924 8.05702 96.0314 7.99229C95.8704 7.92757 95.7323 7.81693 95.6344 7.67432C95.5366 7.5317 95.4834 7.36349 95.4815 7.19087C95.4801 7.07529 95.5018 6.96057 95.5453 6.85338C95.5889 6.74619 95.6534 6.64866 95.7351 6.56643C95.8168 6.4842 95.9142 6.41892 96.0215 6.37437C96.1288 6.32981 96.2439 6.30688 96.3602 6.30689V6.30689ZM95.6525 14.149V8.90726H97.0773V14.149H95.6525Z" fill="#404041"/>
<path d="M99.4152 11.5275C99.4152 12.476 100.037 13.0094 100.766 13.0094C101.039 13.0199 101.307 12.9381 101.527 12.7773C101.747 12.6165 101.906 12.3863 101.977 12.1243L103.232 12.5405C102.996 13.4139 102.17 14.3084 100.766 14.3084C99.2124 14.3084 97.9893 13.136 97.9893 11.5275C97.9893 9.91898 99.1911 8.74658 100.724 8.74658C102.161 8.74658 102.975 9.63174 103.201 10.5157L101.926 10.9413C101.798 10.5052 101.465 10.0573 100.757 10.0573C100.027 10.0573 99.4152 10.579 99.4152 11.5275Z" fill="#404041"/>
<path d="M105.602 14.1493H104.176V6.43494H105.602V9.34365C105.945 8.93917 106.523 8.768 107.028 8.768C108.368 8.768 108.989 9.69537 108.989 10.8467V14.1493H107.563V11.0917C107.563 10.5055 107.274 10.0471 106.588 10.0471C105.987 10.0471 105.634 10.4949 105.602 11.0706V14.1493Z" fill="#404041"/>
<path d="M111.636 11.1336L112.934 10.9413C113.233 10.8991 113.33 10.7502 113.33 10.5685C113.33 10.1957 113.04 9.88732 112.44 9.88732C111.818 9.88732 111.476 10.2812 111.432 10.7397L110.168 10.4735C110.253 9.65284 111.015 8.74658 112.429 8.74658C114.101 8.74658 114.723 9.6845 114.723 10.7397V13.3189C114.724 13.5972 114.746 13.875 114.788 14.1501H113.48C113.444 13.9426 113.426 13.7324 113.427 13.5217C113.158 13.9368 112.654 14.299 111.872 14.299C110.746 14.299 110.061 13.5428 110.061 12.7222C110.061 11.7831 110.758 11.2661 111.636 11.1336ZM113.332 12.0281V11.7936L112.142 11.9742C111.778 12.0269 111.489 12.2298 111.489 12.6354C111.489 12.9438 111.713 13.2427 112.174 13.2427C112.772 13.2439 113.332 12.9555 113.332 12.0281Z" fill="#404041"/>
<path d="M117.832 8.90738H118.894V10.1642H117.832V12.3589C117.832 12.8173 118.047 12.9662 118.454 12.9662C118.602 12.9676 118.749 12.9535 118.894 12.924V14.0964C118.636 14.1902 118.363 14.2336 118.089 14.2242C117.061 14.2242 116.418 13.6169 116.418 12.6039V10.1642H115.464V8.90738H115.732C116.288 8.90738 116.545 8.54511 116.545 8.07616V7.34106H117.832V8.90738Z" fill="#404041"/>
<path d="M61.4277 14.363C62.3128 15.0122 63.4136 15.2961 64.5022 15.1561C64.796 15.1175 65.1036 15.0637 65.4374 14.9988C69.8208 14.1464 73.3933 10.6057 73.4195 7.08988C73.4338 6.34001 73.2626 5.59822 72.9212 4.93046C72.5797 4.26269 72.0785 3.68965 71.4622 3.26229C71.2622 3.12436 70.7726 3.15884 70.8264 3.22505C71.5828 4.07566 71.9898 5.18078 71.9657 6.31884C71.9408 9.8347 68.367 13.3768 63.9836 14.2278C63.1463 14.4174 62.2826 14.4608 61.4305 14.3561L61.4277 14.363Z" fill="url(#paint0_linear_2274_8816)"/>
<path d="M73.3926 4.22944L71.9402 3.45703C73.5457 4.30807 74.5471 5.80186 74.5333 7.67772C74.5071 11.1936 70.9347 14.7343 66.5512 15.5867C65.6054 15.7769 64.6357 15.8197 63.6768 15.7136L62.634 17.4488C62.5036 17.6029 62.3245 17.7079 62.1264 17.7467C61.9751 17.7807 61.8166 17.7628 61.6768 17.6957L63.2106 18.5094C63.3723 18.5713 63.5485 18.5857 63.7181 18.5508C63.8085 18.5357 63.8949 18.5024 63.972 18.4528C64.049 18.4033 64.1152 18.3385 64.1664 18.2625L65.2216 16.4943C66.1511 16.587 67.0892 16.5405 68.005 16.3563C72.3871 15.5039 75.9609 11.9632 75.9871 8.44738C75.9995 6.57289 74.9981 5.08186 73.3926 4.22944Z" fill="url(#paint1_linear_2274_8816)"/>
<path d="M60.1108 16.7151L60.1219 14.9538C60.123 14.7876 60.0835 14.6238 60.0068 14.4764C59.9301 14.329 59.8186 14.2026 59.6819 14.1082C58.4405 13.2434 56.6391 11.271 58.1729 7.64893C57.3453 7.87651 56.8529 8.031 56.2419 8.23789C55.966 9.56479 55.8998 12.0296 58.6667 13.6172L58.6501 15.9441C58.648 16.0114 58.6654 16.078 58.7001 16.1357C58.7349 16.1934 58.7855 16.2399 58.846 16.2696C58.846 16.2696 60.0639 16.9138 60.1205 16.9455C60.1522 16.9606 60.1729 16.9344 60.1481 16.8972C60.1207 16.8406 60.1079 16.778 60.1108 16.7151Z" fill="url(#paint2_linear_2274_8816)"/>
<path d="M62.8606 18.0942L62.8771 15.6901L61.6923 15.0611C61.1849 14.6267 60.7801 14.0852 60.507 13.4756C60.234 12.866 60.0994 12.2035 60.113 11.5356C60.1167 11.1226 60.1667 10.7113 60.262 10.3094C60.2419 10.2505 60.2125 10.1951 60.1751 10.1453C59.7351 9.31769 59.4123 8.52873 59.2896 8.23218C57.5392 12.3067 60.073 14.3094 61.2413 14.9825L61.3792 15.0515L61.3627 17.2984C61.3612 17.3681 61.3796 17.4368 61.4158 17.4964C61.4519 17.556 61.5043 17.604 61.5668 17.6349L63.0675 18.4308C63.0043 18.4006 62.9511 18.3527 62.9144 18.293C62.8777 18.2333 62.859 18.1643 62.8606 18.0942V18.0942Z" fill="#1C00C2"/>
<path d="M69.3792 2.09821C67.9806 1.35614 66.1254 1.10097 64.084 1.49683C62.1783 1.87153 60.4034 2.73732 58.9351 4.00855C58.2316 4.61983 57.6215 5.33082 57.124 6.1189C58.0813 5.90235 58.7006 5.78786 59.5089 5.65269C61.2123 3.85959 63.0509 2.83752 65.5571 2.26373C67.0564 1.97545 68.4537 2.04028 69.644 2.39062C69.7626 2.43338 69.8068 2.32717 69.6785 2.25269L69.3792 2.09821Z" fill="url(#paint3_linear_2274_8816)"/>
<path d="M66.646 2.85825H66.6391C64.1384 3.42238 62.3453 4.43342 60.6309 6.23756C60.7751 6.90187 60.9533 7.55836 61.1647 8.20445C62.4433 6.16721 64.7688 4.46652 67.4653 3.77135L68.1191 3.62514C70.1522 3.2348 72.0005 3.48721 73.3936 4.22928L71.9412 3.45687C70.5426 2.71756 68.6902 2.46101 66.646 2.85825Z" fill="#1C00C2"/>
<defs>
<linearGradient id="paint0_linear_2274_8816" x1="61.4264" y1="9.17815" x2="73.4195" y2="9.17815" gradientUnits="userSpaceOnUse">
<stop stop-color="#00DEBB"/>
<stop offset="1" stop-color="#00DEBB"/>
</linearGradient>
<linearGradient id="paint1_linear_2274_8816" x1="61.6768" y1="11.0143" x2="75.9871" y2="11.0143" gradientUnits="userSpaceOnUse">
<stop stop-color="#128CFF"/>
<stop offset="1" stop-color="#128CFF"/>
</linearGradient>
<linearGradient id="paint2_linear_2274_8816" x1="56.1164" y1="12.3013" x2="60.1674" y2="12.3013" gradientUnits="userSpaceOnUse">
<stop stop-color="#00DEBB"/>
<stop offset="1" stop-color="#00DEBB"/>
</linearGradient>
<linearGradient id="paint3_linear_2274_8816" x1="57.124" y1="3.71476" x2="69.7557" y2="3.71476" gradientUnits="userSpaceOnUse">
<stop stop-color="#00DEBB"/>
<stop offset="1" stop-color="#00DEBB"/>
</linearGradient>
</defs>
</svg>
