<svg width="28" height="28" viewBox="0 0 28 28" fill="none" xmlns="http://www.w3.org/2000/svg">
<rect width="28" height="28" rx="2" fill="#0084FF"/>
<g clip-path="url(#clip0_2596_9605)">
<path fill-rule="evenodd" clip-rule="evenodd" d="M13.9993 5.66675C9.3056 5.66675 5.66602 9.10633 5.66602 13.7501C5.66602 16.1792 6.66185 18.2792 8.28268 19.7292C8.4181 19.8501 8.50143 20.0209 8.5056 20.2042L8.55143 21.6876C8.56602 22.1605 9.05352 22.4688 9.48685 22.2772L11.141 21.548C11.2806 21.4855 11.4389 21.4751 11.5868 21.5147C12.3473 21.723 13.1556 21.8355 13.9993 21.8355C18.6931 21.8355 22.3327 18.3959 22.3327 13.7522C22.3327 9.10842 18.6931 5.66675 13.9993 5.66675ZM8.99555 16.1147L11.4435 12.2313C11.833 11.6126 12.6664 11.4605 13.2518 11.898L15.1997 13.3584C15.3789 13.4917 15.6247 13.4917 15.8018 13.3563L18.431 11.3605C18.781 11.0938 19.2393 11.5147 19.006 11.8876L16.556 15.7688C16.1664 16.3876 15.333 16.5397 14.7476 16.1022L12.7997 14.6417C12.6205 14.5084 12.3747 14.5084 12.1976 14.6438L9.56846 16.6397C9.21846 16.9063 8.76013 16.4876 8.99555 16.1147Z" fill="white"/>
</g>
<defs>
<clipPath id="clip0_2596_9605">
<rect width="20" height="20" fill="white" transform="translate(4 4)"/>
</clipPath>
</defs>
</svg>
