<svg width="28" height="28" viewBox="0 0 28 28" fill="none" xmlns="http://www.w3.org/2000/svg">
<rect width="28" height="28" rx="2" fill="#0EBE2C"/>
<path d="M21.9634 13.0743C21.8651 13.0743 21.7709 13.0352 21.7015 12.9658C21.632 12.8963 21.593 12.8021 21.593 12.7039C21.5912 11.0345 20.9274 9.43404 19.747 8.25362C18.5667 7.0732 16.9663 6.40926 15.2971 6.4075C15.1989 6.4075 15.1047 6.36848 15.0352 6.29902C14.9658 6.22956 14.9268 6.13535 14.9268 6.03712C14.9268 5.93889 14.9658 5.84469 15.0352 5.77523C15.1047 5.70577 15.1989 5.66675 15.2971 5.66675C17.1627 5.66881 18.9513 6.41088 20.2705 7.73015C21.5896 9.04943 22.3316 10.8382 22.3337 12.7039C22.3337 12.8021 22.2947 12.8963 22.2252 12.9658C22.1558 13.0352 22.0616 13.0743 21.9634 13.0743Z" fill="white"/>
<path d="M19.0006 13.0744C18.9024 13.0744 18.8082 13.0354 18.7387 12.9659C18.6693 12.8965 18.6302 12.8022 18.6302 12.704C18.6292 11.8203 18.2776 10.973 17.6528 10.3482C17.0279 9.72325 16.1808 9.37171 15.2971 9.37063C15.1989 9.37063 15.1047 9.33161 15.0352 9.26215C14.9658 9.19269 14.9268 9.09849 14.9268 9.00026C14.9268 8.90203 14.9658 8.80782 15.0352 8.73836C15.1047 8.6689 15.1989 8.62988 15.2971 8.62988C16.3772 8.63116 17.4126 9.0608 18.1763 9.82458C18.94 10.5883 19.3697 11.6239 19.3709 12.704C19.3709 12.8022 19.3319 12.8965 19.2625 12.9659C19.193 13.0354 19.0988 13.0744 19.0006 13.0744Z" fill="white"/>
<path d="M16.5462 16.1017L15.2182 17.7621C13.1613 16.5531 11.4471 14.839 10.2381 12.782L11.8984 11.4539C12.0929 11.298 12.2303 11.0822 12.2892 10.8401C12.3482 10.5979 12.3254 10.3431 12.2243 10.1153L10.7107 6.70786C10.6022 6.46338 10.4105 6.2654 10.1696 6.14926C9.92867 6.03311 9.65435 6.00636 9.39556 6.07377L6.515 6.82008C6.24623 6.89042 6.01257 7.05687 5.85826 7.28791C5.70394 7.51896 5.63969 7.79856 5.67764 8.0738C6.18345 11.6739 7.84731 15.0114 10.4177 17.5821C12.9882 20.1527 16.3255 21.8167 19.9253 22.3225C20.2004 22.3606 20.4799 22.2965 20.7108 22.1422C20.9418 21.9879 21.1081 21.7542 21.1782 21.4855L21.9252 18.6043C21.9924 18.3455 21.9656 18.0712 21.8495 17.8304C21.7334 17.5895 21.5355 17.3977 21.2911 17.2891L17.8847 15.7776C17.6571 15.6763 17.4024 15.6531 17.1603 15.7117C16.9181 15.7703 16.7022 15.9075 16.5462 16.1017V16.1017Z" fill="white"/>
</svg>
