<svg width="28" height="28" viewBox="0 0 28 28" fill="none" xmlns="http://www.w3.org/2000/svg">
<rect width="28" height="28" rx="2" fill="#008FE5"/>
<path d="M8.76233 5.7499C9.33402 5.6599 9.91543 5.65936 10.4931 5.67229L10.4434 5.7181C9.68762 6.2123 9.06086 6.8908 8.60793 7.66954C7.69991 9.22865 7.36899 11.0723 7.44403 12.8594C7.51852 14.3145 7.86834 15.7776 8.61009 17.0425C8.73425 17.2688 8.94101 17.4688 8.94425 17.7436C8.96747 18.3332 8.67541 18.8888 8.28024 19.3103C8.30616 19.3372 8.33153 19.3642 8.35744 19.3911C8.72724 19.7942 9.12186 20.1731 9.49759 20.5708C10.0315 21.1733 10.6399 21.7069 11.163 22.3202C10.2928 22.3331 9.4123 22.3735 8.55233 22.2113C7.46994 22.0017 6.50901 21.2526 6.05015 20.2512C5.77213 19.6724 5.68899 19.0252 5.6674 18.3909C5.66686 15.4624 5.66686 12.5344 5.6674 9.60643C5.67927 8.62775 5.93894 7.60379 6.62886 6.87787C7.17518 6.26295 7.94878 5.86307 8.76233 5.7499Z" fill="white"/>
<path d="M16.6893 11.126C16.9209 11.126 17.1525 11.126 17.3846 11.126C17.3808 12.4803 17.3808 13.8351 17.3846 15.1895C17.1579 15.1577 16.7805 15.3026 16.6952 15.0014C16.6812 13.7101 16.6942 12.4178 16.6893 11.126Z" fill="white"/>
<path d="M9.60398 11.1749C10.6815 11.1738 11.758 11.1668 12.835 11.1744C12.8274 11.3851 12.8155 11.6147 12.6741 11.785C11.9377 12.7 11.217 13.627 10.4812 14.5421C11.2635 14.5469 12.0457 14.5437 12.8279 14.5437C12.8134 14.7264 12.8776 14.9393 12.7588 15.0977C12.6843 15.2001 12.5494 15.1909 12.4376 15.192C11.4589 15.1866 10.4802 15.1969 9.50195 15.1866C9.50465 14.9802 9.50681 14.7517 9.65149 14.5874C10.3792 13.676 11.1155 12.7712 11.84 11.8577C11.0956 11.8588 10.3506 11.8529 9.60614 11.8609C9.60128 11.6324 9.6029 11.4034 9.60398 11.1749Z" fill="white"/>
<path d="M19.1107 12.0749C19.8859 11.9019 20.727 12.4101 20.9391 13.1721C21.2053 13.9649 20.7194 14.9075 19.9167 15.1489C19.2348 15.3887 18.4186 15.0756 18.065 14.4483C17.7875 13.9848 17.7708 13.378 18.0229 12.9011C18.2367 12.4802 18.6496 12.1724 19.1107 12.0749ZM19.0977 12.7615C18.6248 12.928 18.37 13.5025 18.5546 13.9665C18.7074 14.4052 19.2219 14.6736 19.6689 14.5389C20.179 14.4171 20.4873 13.8205 20.3064 13.3317C20.1553 12.8477 19.5695 12.5686 19.0977 12.7615Z" fill="white"/>
<path d="M13.3655 12.6331C13.7385 12.1718 14.3918 11.9443 14.9672 12.1087C15.1573 12.1567 15.3295 12.2515 15.4957 12.3523C15.4941 12.3016 15.4903 12.2009 15.4887 12.1502C15.7063 12.1491 15.9233 12.1497 16.1409 12.1486C16.1398 13.1618 16.1387 14.1749 16.1414 15.1886C15.9816 15.1843 15.8191 15.2032 15.662 15.1709C15.5519 15.1261 15.5179 15.0059 15.4741 14.9079C14.8738 15.3735 13.9307 15.2679 13.4319 14.7009C12.9002 14.1518 12.8726 13.2162 13.3655 12.6331ZM14.2444 12.7689C13.7445 12.9446 13.5021 13.5875 13.7553 14.051C13.9712 14.5026 14.5791 14.6923 15.0137 14.4433C15.4169 14.2321 15.6032 13.7077 15.4299 13.2884C15.262 12.8325 14.6957 12.577 14.2444 12.7689Z" fill="white"/>
<path d="M22.2892 18.0312L22.3318 17.9849C22.354 18.8272 22.2627 19.7062 21.8487 20.4558C21.3671 21.3353 20.4937 21.9885 19.5111 22.1976C18.96 22.3113 18.3948 22.3367 17.8333 22.3297C16.1063 22.3302 14.3794 22.3297 12.6524 22.3302C12.1558 22.3221 11.658 22.3453 11.163 22.3194C10.6399 21.7061 10.0315 21.1726 9.49757 20.5701C9.12184 20.1724 8.72722 19.7935 8.35742 19.3904C9.08459 19.4502 9.81716 19.3058 10.4812 19.011C11.78 19.856 13.3235 20.2553 14.855 20.3868C16.3865 20.5033 17.9472 20.3437 19.4043 19.8479C20.4856 19.4718 21.5199 18.8903 22.2892 18.0312Z" fill="white"/>
</svg>
