<svg width="24" height="24" viewBox="0 0 24 24" fill="none" xmlns="http://www.w3.org/2000/svg">
<path d="M17.7657 1.6178H6.23421C3.77493 1.6178 1.78125 3.61148 1.78125 6.07196V14.2742C1.78125 16.7335 3.77493 18.7272 6.23421 18.7272H17.7657C20.225 18.7272 22.2187 16.7335 22.2187 14.2742V6.07196C22.2187 3.61148 20.225 1.6178 17.7657 1.6178ZM6.89373 14.9325C6.62369 14.9325 6.35971 14.8524 6.13518 14.7024C5.91064 14.5524 5.73564 14.3391 5.6323 14.0897C5.52896 13.8402 5.50192 13.5656 5.55461 13.3008C5.60729 13.0359 5.73733 12.7927 5.92827 12.6017C6.11922 12.4108 6.36251 12.2807 6.62736 12.228C6.89222 12.1753 7.16674 12.2024 7.41623 12.3057C7.66572 12.4091 7.87896 12.5841 8.02899 12.8086C8.17901 13.0331 8.25909 13.2971 8.25909 13.5672C8.25909 13.9292 8.11531 14.2764 7.85936 14.5324C7.6034 14.7885 7.25624 14.9324 6.89421 14.9325H6.89373ZM11.9952 14.9325C11.7251 14.9325 11.4612 14.8524 11.2367 14.7023C11.0122 14.5522 10.8372 14.339 10.7339 14.0895C10.6306 13.84 10.6036 13.5655 10.6563 13.3006C10.709 13.0358 10.8391 12.7925 11.03 12.6016C11.221 12.4107 11.4643 12.2807 11.7291 12.228C11.994 12.1754 12.2685 12.2024 12.518 12.3058C12.7674 12.4091 12.9807 12.5841 13.1307 12.8086C13.2807 13.0332 13.3608 13.2971 13.3608 13.5672C13.3608 13.9292 13.217 14.2765 12.961 14.5325C12.7049 14.7886 12.3577 14.9325 11.9957 14.9325H11.9952ZM17.1053 14.9325C17.0399 14.9325 16.9746 14.9278 16.9099 14.9184C16.5601 14.8676 16.2437 14.6831 16.0272 14.4037C15.8107 14.1243 15.7111 13.7718 15.7493 13.4204C15.7875 13.069 15.9605 12.7462 16.232 12.5198C16.5034 12.2935 16.8521 12.1813 17.2046 12.2068C17.5571 12.2324 17.886 12.3937 18.122 12.6568C18.3579 12.92 18.4826 13.2644 18.4697 13.6176C18.4568 13.9708 18.3074 14.3052 18.0529 14.5505C17.7984 14.7958 17.4587 14.9327 17.1053 14.9325Z" fill="white"/>
<path d="M9.12012 18.5422L12.9318 22.3822V17.7173L9.12012 18.5422Z" fill="white"/>
<path d="M22.2185 6.07196V14.2742C22.2185 16.7335 20.2248 18.7272 17.7656 18.7272H16.2807C16.6701 17.4938 16.8821 16.2114 16.9102 14.9184C16.9749 14.9278 17.0402 14.9325 17.1056 14.9325C17.3016 14.9324 17.4953 14.8902 17.6735 14.8086C17.8517 14.7269 18.0102 14.6079 18.1383 14.4596C18.2664 14.3113 18.3611 14.1371 18.4159 13.9489C18.4707 13.7607 18.4843 13.5629 18.4559 13.369C18.4274 13.1751 18.3576 12.9895 18.251 12.825C18.1445 12.6605 18.0038 12.5208 17.8385 12.4155C17.6732 12.3103 17.4871 12.2418 17.293 12.2148C17.0988 12.1878 16.9012 12.2029 16.7134 12.2592C15.8472 7.2494 12.2532 3.17396 7.5166 1.6178H17.7646C20.2248 1.6178 22.2185 3.61148 22.2185 6.07196Z" fill="white"/>
</svg>
